<?xml version="1.0" encoding="utf-8"?>
<!-- Generator: Adobe Illustrator 24.1.0, SVG Export Plug-In . SVG Version: 6.00 Build 0)  -->
<svg version="1.1" id="Capa_1" xmlns="http://www.w3.org/2000/svg" xmlns:xlink="http://www.w3.org/1999/xlink" x="0px" y="0px"
	 viewBox="0 0 19 19" style="enable-background:new 0 0 19 19;" xml:space="preserve">
<style type="text/css">
	.st0{fill:#E3DC1D;}
</style>
<g>
	
		<rect x="7.81" y="4.51" transform="matrix(0.7071 -0.7071 0.7071 0.7071 0.0486 11.1503)" class="st0" width="11.35" height="2.01"/>
	<rect x="11.98" class="st0" width="7.02" height="2.01"/>
	<rect x="16.99" class="st0" width="2.01" height="7.02"/>
	<path class="st0" d="M15.16,19H3.79C1.7,19,0,17.3,0,15.21V3.84c0-2.09,1.7-3.79,3.79-3.79h6.16v1.89H3.79
		c-1.04,0-1.89,0.85-1.89,1.89v11.37c0,1.04,0.85,1.89,1.89,1.89h11.37c1.05,0,1.9-0.85,1.9-1.89V9.1h1.89v6.11
		C18.94,17.3,17.24,19,15.16,19z"/>
</g>
</svg>
